<svg width="20" height="20" viewBox="0 0 20 20" fill="none" xmlns="http://www.w3.org/2000/svg">
<g clip-path="url(#clip0_57_3805)">
<path d="M4.82738 9.45117L14.078 0.226167C14.381 -0.0759023 14.8717 -0.0753945 15.1743 0.227729C15.4767 0.530814 15.4759 1.02179 15.1728 1.32409L6.4728 10L15.1731 18.6759C15.4762 18.9783 15.4769 19.4689 15.1746 19.7721C15.023 19.924 14.8242 20 14.6255 20C14.4273 20 14.2294 19.9245 14.078 19.7736L4.82738 10.5489C4.6814 10.4036 4.59949 10.206 4.59949 10C4.59949 9.7941 4.68163 9.59667 4.82738 9.45117Z" fill="white"/>
</g>
<defs>
<clipPath id="clip0_57_3805">
<rect width="20" height="20" fill="white" transform="matrix(-1 0 0 1 20 0)"/>
</clipPath>
</defs>
</svg>
