<svg width="24" height="24" viewBox="0 0 24 24" fill="none" xmlns="http://www.w3.org/2000/svg">
<path d="M22.0706 12.64C22.4294 12.64 22.7222 12.9303 22.7007 13.2891C22.5853 15.3075 21.9324 17.2637 20.8053 18.9511C19.5565 20.8186 17.7828 22.2752 15.7074 23.135C13.632 23.9946 11.3473 24.2203 9.14381 23.7816C6.94036 23.3429 4.91575 22.2615 3.32702 20.6729C1.73829 19.0843 0.656983 17.0596 0.218338 14.8561C-0.220307 12.6527 0.00534466 10.3681 0.86493 8.29249C1.7245 6.21708 3.18123 4.44351 5.04885 3.19459C6.73631 2.06748 8.6927 1.41456 10.7108 1.29921C11.0696 1.27766 11.36 1.57053 11.36 1.92932V6.31091C11.36 6.66971 11.0684 6.95623 10.7121 6.9968C9.81828 7.0995 8.95745 7.41393 8.20434 7.91723C7.26996 8.541 6.54222 9.42846 6.11244 10.4668C5.68266 11.5039 5.56981 12.6462 5.78915 13.7478C6.00848 14.8496 6.54985 15.8613 7.3435 16.6562C8.13842 17.4498 9.15014 17.9912 10.2519 18.2106C11.3536 18.4299 12.4959 18.3171 13.5329 17.8873C14.5712 17.4575 15.4587 16.7297 16.0825 15.7954C16.5858 15.0423 16.9002 14.1814 17.0029 13.2876C17.0434 12.9313 17.33 12.6397 17.6888 12.6397L22.0706 12.64Z" fill="white"/>
<path d="M12.6582 0.631223C12.6582 0.272419 12.9486 -0.0204328 13.3074 0.00111812C14.5765 0.0733851 15.8278 0.358655 17.0057 0.846764C18.3839 1.41728 19.6365 2.25403 20.6911 3.30886C21.7458 4.36369 22.5827 5.6163 23.1532 6.99426C23.6413 8.17207 23.9266 9.42341 23.9989 10.6926C24.0204 11.0514 23.7276 11.3418 23.3688 11.3418H18.9872C18.6284 11.3418 18.3419 11.0502 18.3013 10.6939C18.2404 10.1703 18.1086 9.65684 17.9057 9.16873C17.6205 8.47904 17.2021 7.85273 16.6747 7.32532C16.1472 6.7979 15.5209 6.37951 14.8312 6.09425C14.3431 5.8914 13.8297 5.75956 13.3061 5.69868C12.9498 5.6581 12.6582 5.37158 12.6582 5.01278L12.6582 0.631223Z" fill="white"/>
</svg>
