<svg width="36" height="36" viewBox="0 0 36 36" fill="none" xmlns="http://www.w3.org/2000/svg">
<rect width="36" height="36" rx="12" fill="url(#paint0_linear_57_6635)"/>
<path d="M7 16.157V22.75C7 24.6795 8.43917 26.25 10.2083 26.25H25.7917C27.5608 26.25 29 24.6795 29 22.75V16.157H7ZM11.125 18.25H13.4167C13.9227 18.25 14.3333 18.698 14.3333 19.25C14.3333 19.802 13.9227 20.25 13.4167 20.25H11.125C10.619 20.25 10.2083 19.802 10.2083 19.25C10.2083 18.698 10.619 18.25 11.125 18.25ZM14.7917 23.25H11.125C10.619 23.25 10.2083 22.802 10.2083 22.25C10.2083 21.698 10.619 21.25 11.125 21.25H14.7917C15.2977 21.25 15.7083 21.698 15.7083 22.25C15.7083 22.802 15.2977 23.25 14.7917 23.25ZM23.9583 23.25C22.9459 23.25 22.125 22.3545 22.125 21.25C22.125 20.1455 22.9459 19.25 23.9583 19.25C24.9708 19.25 25.7917 20.1455 25.7917 21.25C25.7917 22.3545 24.9708 23.25 23.9583 23.25Z" fill="white"/>
<path d="M29 13.657V13.25C29 11.3205 27.5608 9.75 25.7917 9.75H10.2083C8.43917 9.75 7 11.3205 7 13.25V13.657H29Z" fill="white"/>
<defs>
<linearGradient id="paint0_linear_57_6635" x1="15.6145" y1="2.21305e-07" x2="15.6145" y2="36" gradientUnits="userSpaceOnUse">
<stop stop-color="#4F8E36"/>
<stop offset="1" stop-color="#75C555"/>
</linearGradient>
</defs>
</svg>
