<svg width="36" height="36" viewBox="0 0 36 36" fill="none" xmlns="http://www.w3.org/2000/svg">
<rect width="36" height="36" rx="12" fill="#13161C"/>
<path d="M8 16.3245V22.3182C8 24.0723 9.30833 25.5 10.9167 25.5H25.0833C26.6917 25.5 28 24.0723 28 22.3182V16.3245H8ZM11.75 18.2273H13.8333C14.2933 18.2273 14.6667 18.6345 14.6667 19.1364C14.6667 19.6382 14.2933 20.0454 13.8333 20.0454H11.75C11.29 20.0454 10.9167 19.6382 10.9167 19.1364C10.9167 18.6345 11.29 18.2273 11.75 18.2273ZM15.0833 22.7727H11.75C11.29 22.7727 10.9167 22.3654 10.9167 21.8636C10.9167 21.3618 11.29 20.9545 11.75 20.9545H15.0833C15.5433 20.9545 15.9167 21.3618 15.9167 21.8636C15.9167 22.3654 15.5433 22.7727 15.0833 22.7727ZM23.4167 22.7727C22.4962 22.7727 21.75 21.9586 21.75 20.9545C21.75 19.9504 22.4962 19.1364 23.4167 19.1364C24.3371 19.1364 25.0833 19.9504 25.0833 20.9545C25.0833 21.9586 24.3371 22.7727 23.4167 22.7727Z" fill="white"/>
<path d="M28 14.0518V13.6818C28 11.9277 26.6917 10.5 25.0833 10.5H10.9167C9.30833 10.5 8 11.9277 8 13.6818V14.0518H28Z" fill="white"/>
</svg>
