<svg width="36" height="36" viewBox="0 0 36 36" fill="none" xmlns="http://www.w3.org/2000/svg">
<rect width="36" height="36" rx="12" fill="#13161C"/>
<g clip-path="url(#clip0_46_665)">
<path d="M28.0003 13.1389V18.6944C28.0003 20.375 26.7717 21.7778 25.1431 22.0972V17.3055C25.1431 14.625 22.9003 12.4444 20.1431 12.4444H12.3574C12.686 10.8611 14.1289 9.66666 15.8574 9.66666H24.4289C26.4003 9.66666 28.0003 11.2222 28.0003 13.1389Z" fill="white"/>
<path d="M23.7143 22.1667V22.8611C23.7143 24.7778 22.1143 26.3333 20.1429 26.3333H11.5714C9.6 26.3333 8 24.7778 8 22.8611V22.1667H23.7143Z" fill="white"/>
<path d="M23.7143 17.3056V20.7778H8V17.3056C8 15.3889 9.6 13.8333 11.5714 13.8333H20.1429C22.1143 13.8333 23.7143 15.3889 23.7143 17.3056Z" fill="white"/>
</g>
<defs>
<clipPath id="clip0_46_665">
<rect width="20" height="20" fill="white" transform="translate(8 8)"/>
</clipPath>
</defs>
</svg>
