<svg width="36" height="36" viewBox="0 0 36 36" fill="none" xmlns="http://www.w3.org/2000/svg">
<rect width="36" height="36" rx="12" fill="url(#paint0_linear_57_6614)"/>
<path d="M29.0001 12.6527V18.7638C29.0001 20.6124 27.6487 22.1555 25.8573 22.5069V17.236C25.8573 14.2874 23.3901 11.8888 20.3573 11.8888H11.793C12.1544 10.1471 13.7415 8.83325 15.643 8.83325H25.0715C27.2401 8.83325 29.0001 10.5444 29.0001 12.6527Z" fill="white"/>
<path d="M24.2857 22.5833V23.3471C24.2857 25.4555 22.5257 27.1666 20.3571 27.1666H10.9286C8.76 27.1666 7 25.4555 7 23.3471V22.5833H24.2857Z" fill="white"/>
<path d="M24.2857 17.2359V21.0554H7V17.2359C7 15.1276 8.76 13.4165 10.9286 13.4165H20.3571C22.5257 13.4165 24.2857 15.1276 24.2857 17.2359Z" fill="white"/>
<defs>
<linearGradient id="paint0_linear_57_6614" x1="15.6145" y1="2.21305e-07" x2="15.6145" y2="36" gradientUnits="userSpaceOnUse">
<stop stop-color="#4F8E36"/>
<stop offset="1" stop-color="#75C555"/>
</linearGradient>
</defs>
</svg>
