<svg width="36" height="36" viewBox="0 0 36 36" fill="none" xmlns="http://www.w3.org/2000/svg">
<rect width="36" height="36" rx="12" fill="url(#paint0_linear_57_3922)"/>
<path fill-rule="evenodd" clip-rule="evenodd" d="M18 6C11.3763 6 6 11.3763 6 18C6 24.6237 11.3763 30 18 30C24.6237 30 30 24.6237 30 18C30 11.3763 24.6237 6 18 6ZM14.7987 12.3987C16.125 12.3987 17.1987 13.4753 17.1987 14.7987C17.1987 16.125 16.125 17.1987 14.7987 17.1987C13.4753 17.1987 12.3987 16.125 12.3987 14.7987C12.3987 13.4753 13.4753 12.3987 14.7987 12.3987ZM13.7654 23.3654C13.4526 23.6763 12.9473 23.6763 12.6345 23.3654C12.3236 23.0526 12.3236 22.5473 12.6345 22.2345L22.2345 12.6345C22.5473 12.3236 23.0526 12.3236 23.3654 12.6345C23.6763 12.9473 23.6763 13.4526 23.3654 13.7654L13.7654 23.3654ZM21.2014 23.6012C19.8751 23.6012 18.8014 22.5246 18.8014 21.2012C18.8014 19.8749 19.8751 18.8012 21.2014 18.8012C22.5248 18.8012 23.6014 19.8749 23.6014 21.2012C23.6014 22.5246 22.5248 23.6012 21.2014 23.6012Z" fill="white"/>
<defs>
<linearGradient id="paint0_linear_57_3922" x1="15.6145" y1="2.21305e-07" x2="15.6145" y2="36" gradientUnits="userSpaceOnUse">
<stop stop-color="#4F8E36"/>
<stop offset="1" stop-color="#75C555"/>
</linearGradient>
</defs>
</svg>
