<svg width="36" height="36" viewBox="0 0 36 36" fill="none" xmlns="http://www.w3.org/2000/svg">
<rect width="36" height="36" rx="12" fill="url(#paint0_linear_57_6624)"/>
<path fill-rule="evenodd" clip-rule="evenodd" d="M28.9875 17.1555C28.9326 16.7175 28.7031 16.3261 28.3413 16.0536L25.7617 14.1108V10.6971C25.7617 10.4582 25.5598 10.2646 25.3106 10.2646H23.456C23.2068 10.2646 23.0049 10.4582 23.0049 10.6971V12.0343L19.3515 9.2827C18.5558 8.68341 17.4443 8.68346 16.6484 9.2827L7.65872 16.0536C7.29692 16.3261 7.06744 16.7175 7.01254 17.1555C6.95768 17.5935 7.084 18.0257 7.3682 18.3726C7.65236 18.7196 8.06049 18.9396 8.51729 18.9922C8.58717 19.0003 8.65691 19.0043 8.72621 19.0043C9.10993 19.0042 9.48034 18.8821 9.78683 18.6512L17.2058 13.0634C17.6734 12.7112 18.3266 12.7112 18.7942 13.0634L26.2132 18.6512C26.575 18.9237 27.0255 19.0448 27.4827 18.9922C27.9395 18.9396 28.3476 18.7196 28.6318 18.3727C28.916 18.0257 29.0423 17.5935 28.9875 17.1555Z" fill="white"/>
<path fill-rule="evenodd" clip-rule="evenodd" d="M25.588 19.1937L18.8395 14.1478C18.3452 13.7783 17.6549 13.7782 17.1606 14.1478L10.412 19.1937C10.3024 19.2756 10.2383 19.4015 10.2383 19.5348V25.2932C10.2383 26.3262 11.1148 27.1666 12.1922 27.1666H15.7233C15.9724 27.1666 16.1744 26.973 16.1744 26.7341V22.7018C16.1744 21.7367 16.9933 20.9514 18 20.9514C19.0067 20.9514 19.8257 21.7367 19.8257 22.7018V26.7341C19.8257 26.973 20.0277 27.1666 20.2768 27.1666H23.8079C24.8852 27.1666 25.7617 26.3262 25.7617 25.2932V19.5348C25.7617 19.4015 25.6976 19.2756 25.588 19.1937Z" fill="white"/>
<defs>
<linearGradient id="paint0_linear_57_6624" x1="15.6145" y1="2.21305e-07" x2="15.6145" y2="36" gradientUnits="userSpaceOnUse">
<stop stop-color="#4F8E36"/>
<stop offset="1" stop-color="#75C555"/>
</linearGradient>
</defs>
</svg>
