<svg width="24" height="24" viewBox="0 0 24 24" fill="none" xmlns="http://www.w3.org/2000/svg">
<path d="M12.0029 1.50002C12.2242 1.50006 12.4246 1.60465 12.5459 1.76857L12.5928 1.84181L15.3877 7.32033L15.3916 7.32716C15.639 7.79514 16.1025 8.10824 16.626 8.1758L22.9697 9.06837L22.9824 9.07033L22.9941 9.0713C23.2186 9.0916 23.4006 9.23574 23.4697 9.4258C23.538 9.61468 23.4893 9.82729 23.3369 9.97267L18.6729 14.376C18.3026 14.7197 18.1296 15.2239 18.2168 15.7217V15.7227L19.3096 21.874C19.3451 22.0741 19.2561 22.2631 19.0635 22.3877C18.8685 22.5138 18.6015 22.5454 18.3564 22.4209L12.7803 19.5899L12.6729 19.5361H12.6533C12.1955 19.3506 11.6761 19.3661 11.2305 19.5879L11.2266 19.5899L5.65039 22.4209C5.4054 22.5454 5.13833 22.5137 4.94336 22.3877C4.7506 22.2631 4.66172 22.0741 4.69727 21.874L5.78809 15.7227V15.7217C5.86478 15.2841 5.74072 14.8419 5.45801 14.5078L5.32812 14.3721L0.663086 9.97267C0.510138 9.82654 0.462045 9.61395 0.530273 9.42677L0.53125 9.4258C0.60036 9.23581 0.781568 9.09165 1.00586 9.0713L1.01855 9.07033L1.03027 9.06837L7.37305 8.1758L7.37402 8.17677C7.37595 8.17652 7.37795 8.17605 7.37988 8.1758L7.37891 8.17482C7.9006 8.10603 8.36273 7.79388 8.60938 7.32716L8.6123 7.3213L11.4131 1.84181C11.5247 1.63649 11.7502 1.50002 12.0029 1.50002Z" stroke="black"/>
</svg>
