<svg width="24" height="24" viewBox="0 0 24 24" fill="none" xmlns="http://www.w3.org/2000/svg">
<path opacity="0.4" d="M5.29601 15.6357L4.20474 21.7862C4.05181 22.6458 5.04593 23.2892 5.87678 22.867L5.29601 15.6357ZM5.29601 15.6357C5.35388 15.3059 5.23918 14.9701 4.98908 14.7399M5.29601 15.6357L0.0609098 9.25486M0.320294 10.3366C0.0247377 10.0561 -0.0775639 9.63386 0.0609098 9.25486M0.320294 10.3366L4.98908 14.7399M0.320294 10.3366L0.836566 9.79258M0.320294 10.3366L23.1641 9.79235C23.2461 9.71434 23.2687 9.60527 23.2345 9.51071C23.1995 9.41481 23.1027 9.33203 22.9719 9.3202L22.9534 9.31853L22.935 9.31594L16.5896 8.42372C15.9894 8.34488 15.4561 7.98432 15.1705 7.4438L15.1654 7.43432L15.1655 7.43428L12.3695 1.95505C12.3016 1.83559 12.1638 1.75 12.0028 1.75C11.8417 1.75 11.7037 1.83572 11.6359 1.95524L8.8347 7.43477L8.83006 7.44385L8.82999 7.44381C8.54435 7.98431 8.01104 8.34485 7.41085 8.42372L1.06542 9.31594L1.04703 9.31853L1.02853 9.3202C0.897573 9.33204 0.800705 9.41504 0.765767 9.51114L0.765364 9.51224C0.731752 9.60424 0.753053 9.71287 0.835929 9.79197C0.836141 9.79217 0.836353 9.79238 0.836566 9.79258M0.0609098 9.25486C0.198352 8.87684 0.54972 8.61044 0.96099 8.57325L0.0609098 9.25486ZM4.98908 14.7399L5.50367 14.1943L5.50086 14.1916M4.98908 14.7399L5.49706 14.1881C5.49833 14.1893 5.4996 14.1905 5.50086 14.1916M5.50086 14.1916L0.836566 9.79258M5.50086 14.1916C5.93346 14.5922 6.13711 15.1819 6.03472 15.7653L6.03448 15.7667L4.94321 21.9173L4.94315 21.9176C4.92796 22.003 4.95654 22.0982 5.07911 22.1775C5.20495 22.2589 5.37714 22.2796 5.53699 22.1984L5.53726 22.1982L11.1135 19.3672L11.1186 19.3646L11.1186 19.3646C11.6154 19.1171 12.1931 19.0909 12.7071 19.2859M0.836566 9.79258L23.6802 10.3366L23.1639 9.79258L18.5046 14.1917M12.7071 19.2859H12.5535H12.5525V20.0359L12.5535 20.0339L12.8869 19.3646C12.828 19.3353 12.768 19.3091 12.7071 19.2859ZM12.7071 19.2859H12.733L12.8931 19.3672L18.4693 22.1982L18.4695 22.1984C18.6294 22.2796 18.8016 22.2589 18.9274 22.1775C19.05 22.0982 19.0786 22.003 19.0634 21.9176L19.0633 21.9174L17.971 15.7668L17.9707 15.7653C17.8684 15.1819 18.072 14.5923 18.5046 14.1917M18.5046 14.1917L18.5015 14.1946L19.0164 14.7399L18.5084 14.1881C18.5071 14.1893 18.5059 14.1905 18.5046 14.1917Z" stroke="black" stroke-width="1.5"/>
</svg>
