<svg width="36" height="36" viewBox="0 0 36 36" fill="none" xmlns="http://www.w3.org/2000/svg">
<rect width="36" height="36" rx="12" fill="url(#paint0_linear_57_3912)"/>
<path d="M18 6C14.8171 6 11.7648 7.26468 9.5148 9.5148C7.2648 11.7649 6 14.8174 6 18C6 21.1826 7.26468 24.2352 9.5148 26.4852C11.7649 28.7352 14.8174 30 18 30C21.1826 30 24.2352 28.7353 26.4852 26.4852C28.7352 24.2351 30 21.1826 30 18C29.9963 14.8181 28.7306 11.7684 26.4816 9.5184C24.2316 7.26934 21.1819 6.0036 18 6ZM19.3847 19.8458H16.154V20.7693H19.846C20.356 20.7693 20.7694 21.1827 20.7694 21.6918C20.7694 22.2018 20.356 22.6152 19.846 22.6152H16.154V23.5387C16.154 24.0478 15.7406 24.4612 15.2306 24.4612C14.7206 24.4612 14.3081 24.0478 14.3081 23.5387V22.6152H13.3846C12.8746 22.6152 12.4612 22.2018 12.4612 21.6918C12.4612 21.1827 12.8746 20.7693 13.3846 20.7693H14.3081V19.8458H13.3846C12.8746 19.8458 12.4612 19.4324 12.4612 18.9233C12.4612 18.4133 12.8746 17.9999 13.3846 17.9999H14.3081V12.4612C14.3081 11.9521 14.7206 11.5386 15.2306 11.5386H19.3848C20.8688 11.5386 22.2403 12.3299 22.9819 13.6152C23.7244 14.9005 23.7244 16.4839 22.9819 17.7694C22.2403 19.0547 20.8687 19.8458 19.3847 19.8458Z" fill="white"/>
<path d="M19.3849 13.3849H16.1543V18.0001H19.3849C20.659 18.0001 21.6921 16.967 21.6921 15.692C21.6921 14.4179 20.659 13.3849 19.3849 13.3849Z" fill="white"/>
<defs>
<linearGradient id="paint0_linear_57_3912" x1="15.6145" y1="2.21305e-07" x2="15.6145" y2="36" gradientUnits="userSpaceOnUse">
<stop stop-color="#4F8E36"/>
<stop offset="1" stop-color="#75C555"/>
</linearGradient>
</defs>
</svg>
