<svg width="36" height="36" viewBox="0 0 36 36" fill="none" xmlns="http://www.w3.org/2000/svg">
<rect width="36" height="36" rx="12" fill="#13161C"/>
<path fill-rule="evenodd" clip-rule="evenodd" d="M12.1667 8H23.8333C24.9384 8 25.9982 8.43898 26.7796 9.22039C27.561 10.0018 28 11.0616 28 12.1667V23.8333C28 24.9384 27.561 25.9982 26.7796 26.7796C25.9982 27.561 24.9384 28 23.8333 28H12.1667C11.0616 28 10.0018 27.561 9.22039 26.7796C8.43898 25.9982 8 24.9384 8 23.8333V12.1667C8 11.0616 8.43898 10.0018 9.22039 9.22039C10.0018 8.43898 11.0616 8 12.1667 8ZM14.2962 23.5432C15.3925 24.2757 16.6814 24.6667 18 24.6667C19.7681 24.6667 21.4638 23.9642 22.7141 22.7141C23.9642 21.4638 24.6667 19.7681 24.6667 18C24.6667 16.6814 24.2757 15.3925 23.5432 14.2962C22.8106 13.1998 21.7694 12.3454 20.5513 11.8408C19.3331 11.3362 17.9926 11.2042 16.6994 11.4614C15.4062 11.7187 14.2183 12.3536 13.2859 13.2859C12.3536 14.2183 11.7187 15.4062 11.4614 16.6994C11.2042 17.9926 11.3362 19.3331 11.8408 20.5513C12.3454 21.7694 13.1998 22.8106 14.2962 23.5432ZM15.2222 13.8427C16.0444 13.2932 17.0111 13 18 13C19.3261 13 20.5978 13.5267 21.5355 14.4645C22.4732 15.4022 23 16.6739 23 18C23 18.9889 22.7067 19.9556 22.1573 20.7778C21.6079 21.6001 20.8271 22.241 19.9134 22.6194C18.9998 22.9978 17.9944 23.0968 17.0246 22.9039C16.0547 22.711 15.1637 22.2348 14.4645 21.5355C13.7652 20.8362 13.289 19.9453 13.0961 18.9754C12.9032 18.0056 13.0022 17.0002 13.3806 16.0866C13.7591 15.1729 14.3999 14.3921 15.2222 13.8427ZM19.4333 18.8333H20.5C20.721 18.8333 20.933 18.7455 21.0892 18.5892C21.2455 18.433 21.3333 18.221 21.3333 18C21.3333 17.779 21.2455 17.567 21.0892 17.4107C20.933 17.2545 20.721 17.1667 20.5 17.1667H19.4333C19.2499 16.8489 18.9667 16.6006 18.6277 16.4602C18.2888 16.3198 17.913 16.2952 17.5586 16.3901C17.2042 16.4851 16.8911 16.6943 16.6677 16.9854C16.4443 17.2765 16.3233 17.6331 16.3233 18C16.3233 18.3669 16.4443 18.7235 16.6677 19.0146C16.8911 19.3057 17.2042 19.5149 17.5586 19.6099C17.913 19.7048 18.2888 19.6802 18.6277 19.5398C18.9667 19.3994 19.2499 19.1511 19.4333 18.8333Z" fill="white"/>
</svg>
