<svg width="20" height="20" viewBox="0 0 20 20" fill="none" xmlns="http://www.w3.org/2000/svg">
<path d="M15 12C14.4502 12 14 12.4502 14 13V19C14 19.5498 14.4502 20 15 20C15.5498 20 16 19.5498 16 19V13C16 12.4502 15.5498 12 15 12Z" fill="white"/>
<path d="M4.99999 7.99995C5.54979 7.99995 5.99999 7.54975 5.99999 6.99996V0.999994C5.99999 0.450197 5.54979 0 4.99999 0C4.4502 0 4 0.450197 4 0.999994V6.99996C4 7.54975 4.4502 7.99995 4.99999 7.99995Z" fill="white"/>
<path d="M7.15037 9.22461C6.5996 9 6.02538 9 4.99999 9C3.97459 9 3.4004 9 2.8496 9.22461C2.0996 9.52441 1.52441 10.0996 1.22461 10.8496C1 11.4004 1 11.9746 1 13C1 14.0254 1 14.5996 1.22461 15.1504C1.52441 15.9004 2.0996 16.4756 2.8496 16.7754C3.1992 16.9258 3.54979 16.9756 3.99999 16.9756V19C3.99999 19.5498 4.45019 20 4.99999 20C5.54978 20 5.99998 19.5498 5.99998 19V16.9746C6.45018 16.9492 6.79978 16.8994 7.15037 16.7744C7.90037 16.4746 8.47556 15.8994 8.77536 15.1494C8.99997 14.5996 8.99997 14.0254 8.99997 13C8.99997 11.9746 8.99997 11.4004 8.77536 10.8496C8.47459 10.0996 7.90037 9.52538 7.15037 9.22461Z" fill="white"/>
<path d="M18.7754 4.84959C18.4756 4.0996 17.9004 3.5244 17.1504 3.2246C16.8008 3.07421 16.4502 3.02441 16 3.02441V0.999994C16 0.450197 15.5498 0 15 0C14.4502 0 14 0.450197 14 0.999994V3.02538C13.5498 3.05077 13.2002 3.10058 12.8496 3.22558C12.0996 3.52537 11.5244 4.10057 11.2246 4.85056C11 5.40036 11 5.97458 11 6.99998C11 8.02537 11 8.59957 11.2246 9.15036C11.5244 9.90036 12.0996 10.4756 12.8496 10.7754C13.4004 11 13.9746 11 15 11C16.0254 11 16.5996 11 17.1504 10.7754C17.9004 10.4756 18.4756 9.90036 18.7754 9.15036C19 8.59959 19 8.02537 19 6.99998C19 5.97458 19 5.40039 18.7754 4.84959Z" fill="white"/>
</svg>
