<svg width="24" height="24" viewBox="0 0 24 24" fill="none" xmlns="http://www.w3.org/2000/svg">
<path d="M13.032 1.60322L15.8336 7.09338C16.003 7.41409 16.3234 7.63326 16.6903 7.68049L23.0395 8.57325C23.4508 8.61045 23.8021 8.87687 23.9395 9.25486C24.077 9.63389 23.9757 10.0561 23.6802 10.3366L19.0164 14.7399C18.7663 14.9701 18.6516 15.3059 18.7095 15.6357L19.8018 21.7862C19.9547 22.6458 18.9606 23.2892 18.1297 22.867L12.5535 20.0359H12.5525C12.2073 19.864 11.7981 19.864 11.453 20.0359L5.87678 22.867C5.04593 23.2892 4.05181 22.6458 4.20474 21.7862L5.29601 15.6357C5.35388 15.3059 5.23918 14.9701 4.98908 14.7399L0.320294 10.3366C0.0247377 10.0561 -0.0775639 9.63386 0.0609098 9.25486C0.198352 8.87684 0.54972 8.61044 0.96099 8.57325L7.3102 7.68049C7.67705 7.63324 7.99743 7.41406 8.1669 7.09338L10.9735 1.60322C11.175 1.23225 11.5718 1 12.0028 1C12.4337 1 12.8305 1.23223 13.032 1.60322Z" fill="white"/>
</svg>
