<svg width="36" height="36" viewBox="0 0 36 36" fill="none" xmlns="http://www.w3.org/2000/svg">
<rect width="36" height="36" rx="12" fill="#13161C"/>
<path d="M24.3717 13.0059L23.5358 10.716L17.416 13.0059H24.3717Z" fill="white"/>
<path d="M11.7373 12.6675L11.8617 13.0058H12.7715L22.9814 9.18942L22.7481 8.54811C22.5887 8.11532 22.1105 7.89105 21.6789 8.05237L12.231 11.5855C11.7995 11.7468 11.5778 12.2307 11.7373 12.6675Z" fill="white"/>
<path d="M22.1328 20.9219C22.1328 21.6498 22.716 22.24 23.4353 22.24H27.9998V19.6039H23.4353C22.716 19.6039 22.1328 20.1941 22.1328 20.9219ZM23.8008 20.9219C23.8008 21.1541 23.6141 21.3429 23.3848 21.3429C23.1554 21.3429 22.9687 21.1541 22.9687 20.9219C22.9687 20.6898 23.1554 20.5009 23.3848 20.5009C23.6141 20.5009 23.8008 20.6898 23.8008 20.9219Z" fill="white"/>
<path d="M27.9961 26.3082V23.0819H23.4355C22.2574 23.0819 21.3009 22.1141 21.3009 20.9219C21.3009 19.7298 22.2574 18.7619 23.4355 18.7619H28V15.5357C28 14.6032 27.2535 13.8478 26.332 13.8478H9.66796C8.7465 13.8478 8 14.6032 8 15.5357V26.3121C8 27.2446 8.7465 28 9.66796 28H26.332C27.2535 27.9961 27.9961 27.2407 27.9961 26.3082Z" fill="white"/>
</svg>
