<svg width="36" height="36" viewBox="0 0 36 36" fill="none" xmlns="http://www.w3.org/2000/svg">
<rect width="36" height="36" rx="12" fill="url(#paint0_linear_57_6604)"/>
<path d="M25.0106 12.5064L24.0911 9.98755L17.3594 12.5064H25.0106Z" fill="white"/>
<path d="M11.1106 12.1342L11.2474 12.5064H12.2482L23.4792 8.30836L23.2226 7.60292C23.0472 7.12685 22.5212 6.88016 22.0464 7.0576L11.6537 10.944C11.179 11.1215 10.9352 11.6538 11.1106 12.1342Z" fill="white"/>
<path d="M22.5459 21.2142C22.5459 22.0149 23.1874 22.6641 23.9786 22.6641H28.9996V19.7644H23.9786C23.1874 19.7644 22.5459 20.4136 22.5459 21.2142ZM24.3807 21.2142C24.3807 21.4696 24.1754 21.6773 23.923 21.6773C23.6707 21.6773 23.4654 21.4696 23.4654 21.2142C23.4654 20.9589 23.6707 20.7512 23.923 20.7512C24.1754 20.7512 24.3807 20.9589 24.3807 21.2142Z" fill="white"/>
<path d="M28.9957 27.139V23.5902H23.979C22.6831 23.5902 21.631 22.5255 21.631 21.2142C21.631 19.9028 22.6831 18.8381 23.979 18.8381H29V15.2893C29 14.2636 28.1789 13.4326 27.1652 13.4326H8.83476C7.82115 13.4326 7 14.2636 7 15.2893V27.1434C7 28.1691 7.82115 29 8.83476 29H27.1652C28.1789 28.9957 28.9957 28.1648 28.9957 27.139Z" fill="white"/>
<defs>
<linearGradient id="paint0_linear_57_6604" x1="15.6145" y1="2.21305e-07" x2="15.6145" y2="36" gradientUnits="userSpaceOnUse">
<stop stop-color="#4F8E36"/>
<stop offset="1" stop-color="#75C555"/>
</linearGradient>
</defs>
</svg>
