<svg width="18" height="18" viewBox="0 0 18 18" fill="none" xmlns="http://www.w3.org/2000/svg">
<g clip-path="url(#clip0_57_8521)">
<path d="M0 7.49219V12.8865C0 14.4651 1.1775 15.7501 2.625 15.7501H15.375C16.8225 15.7501 18 14.4651 18 12.8865V7.49219H0ZM3.375 9.20464H5.25C5.664 9.20464 6 9.57119 6 10.0228C6 10.4745 5.664 10.841 5.25 10.841H3.375C2.961 10.841 2.625 10.4745 2.625 10.0228C2.625 9.57119 2.961 9.20464 3.375 9.20464ZM6.375 13.2956H3.375C2.961 13.2956 2.625 12.929 2.625 12.4774C2.625 12.0257 2.961 11.6592 3.375 11.6592H6.375C6.789 11.6592 7.125 12.0257 7.125 12.4774C7.125 12.929 6.789 13.2956 6.375 13.2956ZM13.875 13.2956C13.0466 13.2956 12.375 12.5629 12.375 11.6592C12.375 10.7555 13.0466 10.0228 13.875 10.0228C14.7034 10.0228 15.375 10.7555 15.375 11.6592C15.375 12.5629 14.7034 13.2956 13.875 13.2956Z" fill="#FF7B00"/>
<path d="M18 5.44664V5.11364C18 3.53495 16.8225 2.25 15.375 2.25H2.625C1.1775 2.25 0 3.53495 0 5.11364V5.44664H18Z" fill="#FF7B00"/>
</g>
<defs>
<clipPath id="clip0_57_8521">
<rect width="18" height="18" fill="white"/>
</clipPath>
</defs>
</svg>
