<svg width="18" height="18" viewBox="0 0 18 18" fill="none" xmlns="http://www.w3.org/2000/svg">
<g clip-path="url(#clip0_57_8480)">
<path d="M18.0004 4.625V9.625C18.0004 11.1375 16.8947 12.4 15.429 12.6875V8.375C15.429 5.9625 13.4104 4 10.929 4H3.92188C4.21759 2.575 5.51616 1.5 7.07188 1.5H14.7862C16.5604 1.5 18.0004 2.9 18.0004 4.625Z" fill="#2117E4"/>
<path d="M14.1429 12.75V13.375C14.1429 15.1 12.7029 16.5 10.9286 16.5H3.21429C1.44 16.5 0 15.1 0 13.375V12.75H14.1429Z" fill="#2117E4"/>
<path d="M14.1429 8.37476V11.4998H0V8.37476C0 6.64976 1.44 5.24976 3.21429 5.24976H10.9286C12.7029 5.24976 14.1429 6.64976 14.1429 8.37476Z" fill="#2117E4"/>
</g>
<defs>
<clipPath id="clip0_57_8480">
<rect width="18" height="18" fill="white"/>
</clipPath>
</defs>
</svg>
