<svg width="18" height="18" viewBox="0 0 18 18" fill="none" xmlns="http://www.w3.org/2000/svg">
<path fill-rule="evenodd" clip-rule="evenodd" d="M3.75 0H14.25C15.2446 0 16.1984 0.395085 16.9016 1.09835C17.6049 1.80161 18 2.75544 18 3.75V14.25C18 15.2446 17.6049 16.1984 16.9016 16.9016C16.1984 17.6049 15.2446 18 14.25 18H3.75C2.75544 18 1.80161 17.6049 1.09835 16.9016C0.395085 16.1984 0 15.2446 0 14.25V3.75C0 2.75544 0.395085 1.80161 1.09835 1.09835C1.80161 0.395085 2.75544 0 3.75 0ZM5.66655 13.9888C6.65325 14.6481 7.81327 15 9 15C10.5913 15 12.1175 14.3678 13.2427 13.2427C14.3678 12.1175 15 10.5913 15 9C15 7.81327 14.6481 6.65325 13.9888 5.66655C13.3295 4.67985 12.3925 3.91085 11.2961 3.45672C10.1998 3.0026 8.99332 2.88378 7.82947 3.11529C6.66555 3.3468 5.5965 3.91825 4.75732 4.75732C3.91825 5.5965 3.3468 6.66555 3.11529 7.82947C2.88378 8.99332 3.0026 10.1998 3.45672 11.2961C3.91085 12.3925 4.67985 13.3295 5.66655 13.9888ZM6.49995 5.2584C7.23997 4.76393 8.10997 4.5 9 4.5C10.1935 4.5 11.338 4.97407 12.1819 5.81805C13.0259 6.66195 13.5 7.80653 13.5 9C13.5 9.89003 13.2361 10.76 12.7416 11.5001C12.2471 12.2401 11.5444 12.8169 10.7221 13.1575C9.89978 13.4981 8.99498 13.5872 8.12213 13.4135C7.2492 13.2399 6.44737 12.8113 5.81805 12.1819C5.18865 11.5526 4.7601 10.7508 4.58648 9.87787C4.41284 9.00502 4.50195 8.10023 4.84253 7.27793C5.18318 6.45563 5.75993 5.75287 6.49995 5.2584ZM10.29 9.75H11.25C11.4489 9.75 11.6397 9.67095 11.7803 9.53032C11.9209 9.3897 12 9.1989 12 9C12 8.8011 11.9209 8.6103 11.7803 8.46968C11.6397 8.32905 11.4489 8.25 11.25 8.25H10.29C10.1249 7.96403 9.87008 7.74052 9.56497 7.61415C9.25995 7.48785 8.9217 7.46565 8.60273 7.55107C8.28375 7.63657 8.00198 7.8249 7.8009 8.08687C7.5999 8.34885 7.491 8.66978 7.491 9C7.491 9.33022 7.5999 9.65115 7.8009 9.91313C8.00198 10.1751 8.28375 10.3634 8.60273 10.4489C8.9217 10.5344 9.25995 10.5121 9.56497 10.3858C9.87008 10.2595 10.1249 10.036 10.29 9.75Z" fill="#C039D1"/>
</svg>
