<svg width="18" height="18" viewBox="0 0 18 18" fill="none" xmlns="http://www.w3.org/2000/svg">
<g clip-path="url(#clip0_57_8567)">
<path fill-rule="evenodd" clip-rule="evenodd" d="M17.9897 8.30908C17.9449 7.95072 17.7571 7.63055 17.461 7.40759L15.3505 5.81797V3.02499C15.3505 2.82953 15.1853 2.67109 14.9814 2.67109H13.464C13.2601 2.67109 13.0949 2.82953 13.0949 3.02499V4.11904L10.1057 1.86773C9.45473 1.3774 8.54531 1.37744 7.89418 1.86773L0.538955 7.40759C0.242939 7.63055 0.0551786 7.95072 0.0102595 8.30908C-0.0346228 8.66744 0.0687245 9.02113 0.301256 9.30495C0.53375 9.58882 0.867673 9.76885 1.24142 9.81188C1.29859 9.81847 1.35566 9.82176 1.41235 9.82176C1.7263 9.82172 2.02937 9.72174 2.28014 9.5329L8.3502 4.961C8.73277 4.67286 9.26719 4.67286 9.64976 4.961L15.7199 9.5329C16.0159 9.75582 16.3845 9.85492 16.7586 9.81188C17.1323 9.76885 17.4662 9.58882 17.6987 9.30499C17.9313 9.02113 18.0346 8.66744 17.9897 8.30908Z" fill="#14915D"/>
<path fill-rule="evenodd" clip-rule="evenodd" d="M15.2083 9.97658L9.68674 5.84812C9.28236 5.54578 8.71753 5.54571 8.31311 5.84812L2.79155 9.97658C2.70186 10.0436 2.64941 10.1466 2.64941 10.2557V14.9671C2.64941 15.8123 3.36657 16.4999 4.24809 16.4999H7.13712C7.34098 16.4999 7.50622 16.3414 7.50622 16.146V12.8469C7.50622 12.0572 8.17628 11.4147 8.99992 11.4147C9.82356 11.4147 10.4937 12.0572 10.4937 12.8469V16.146C10.4937 16.3414 10.6589 16.4999 10.8628 16.4999H13.7518C14.6333 16.4999 15.3504 15.8123 15.3504 14.9671V10.2557C15.3504 10.1466 15.298 10.0436 15.2083 9.97658Z" fill="#14915D"/>
</g>
<defs>
<clipPath id="clip0_57_8567">
<rect width="18" height="18" fill="white"/>
</clipPath>
</defs>
</svg>
