<svg width="24" height="24" viewBox="0 0 24 24" fill="none" xmlns="http://www.w3.org/2000/svg">
<path d="M22.0706 12.6402C22.4294 12.6402 22.7222 12.9305 22.7007 13.2893C22.5853 15.3077 21.9324 17.2639 20.8053 18.9513C19.5565 20.8188 17.7828 22.2755 15.7074 23.1352C13.632 23.9948 11.3473 24.2205 9.14381 23.7818C6.94036 23.3432 4.91575 22.2617 3.32702 20.6732C1.73829 19.0846 0.656983 17.0598 0.218338 14.8563C-0.220307 12.6529 0.00534466 10.3683 0.86493 8.29273C1.7245 6.21732 3.18123 4.44375 5.04885 3.19484C6.73631 2.06773 8.6927 1.41481 10.7108 1.29946C11.0696 1.27791 11.36 1.57077 11.36 1.92956V6.31115C11.36 6.66995 11.0684 6.95648 10.7121 6.99705C9.81828 7.09974 8.95745 7.41417 8.20434 7.91747C7.26996 8.54125 6.54222 9.4287 6.11244 10.4671C5.68266 11.5041 5.56981 12.6464 5.78915 13.7481C6.00848 14.8498 6.54985 15.8615 7.3435 16.6564C8.13842 17.4501 9.15014 17.9915 10.2519 18.2108C11.3536 18.4301 12.4959 18.3173 13.5329 17.8875C14.5712 17.4577 15.4587 16.73 16.0825 15.7956C16.5858 15.0425 16.9002 14.1817 17.0029 13.2878C17.0434 12.9316 17.33 12.64 17.6888 12.64L22.0706 12.6402Z" fill="black"/>
<path d="M12.6582 0.631223C12.6582 0.272419 12.9486 -0.0204328 13.3074 0.00111812C14.5765 0.0733851 15.8278 0.358655 17.0057 0.846764C18.3839 1.41728 19.6365 2.25403 20.6911 3.30886C21.7458 4.36369 22.5827 5.6163 23.1532 6.99426C23.6413 8.17207 23.9266 9.42341 23.9989 10.6926C24.0204 11.0514 23.7276 11.3418 23.3688 11.3418H18.9872C18.6284 11.3418 18.3419 11.0502 18.3013 10.6939C18.2404 10.1703 18.1086 9.65684 17.9057 9.16873C17.6205 8.47904 17.2021 7.85273 16.6747 7.32532C16.1472 6.7979 15.5209 6.37951 14.8312 6.09425C14.3431 5.8914 13.8297 5.75956 13.3061 5.69868C12.9498 5.6581 12.6582 5.37158 12.6582 5.01278L12.6582 0.631223Z" fill="black"/>
</svg>
