<svg width="24" height="24" viewBox="0 0 24 24" fill="none" xmlns="http://www.w3.org/2000/svg">
<path d="M19.6471 6.00709L18.644 3.25928L11.3003 6.00709H19.6471Z" fill="black"/>
<path d="M4.48343 5.60096L4.63273 6.007H5.72449L17.9764 1.4273L17.6965 0.657727C17.5052 0.13838 16.9313 -0.130736 16.4134 0.062839L5.07597 4.3026C4.55808 4.49617 4.29214 5.0769 4.48343 5.60096Z" fill="black"/>
<path d="M16.9595 15.5065C16.9595 16.3799 17.6593 17.0881 18.5225 17.0881H23.9999V13.9248H18.5225C17.6593 13.9248 16.9595 14.633 16.9595 15.5065ZM18.961 15.5065C18.961 15.785 18.7371 16.0116 18.4618 16.0116C18.1865 16.0116 17.9626 15.785 17.9626 15.5065C17.9626 15.2279 18.1865 15.0013 18.4618 15.0013C18.7371 15.0013 18.961 15.2279 18.961 15.5065Z" fill="black"/>
<path d="M23.9953 21.97V18.0985H18.5226C17.1089 18.0985 15.9611 16.9371 15.9611 15.5065C15.9611 14.076 17.1089 12.9145 18.5226 12.9145H24V9.04303C24 7.92407 23.1042 7.01758 21.9984 7.01758H2.00155C0.895801 7.01758 0 7.92407 0 9.04303V21.9748C0 23.0937 0.895801 24.0002 2.00155 24.0002H21.9984C23.1042 23.9955 23.9953 23.089 23.9953 21.97Z" fill="black"/>
</svg>
