<svg width="24" height="24" viewBox="0 0 24 24" fill="none" xmlns="http://www.w3.org/2000/svg">
<path d="M24 22.7598C24 23.312 23.5523 23.7598 23 23.7598H16C15.4477 23.7598 15 23.312 15 22.7598L15 17.2598C15 16.7075 14.5523 16.2598 14 16.2598H10C9.44771 16.2598 9 16.7075 9 17.2598V22.7598C9 23.312 8.55228 23.7598 8 23.7598H1C0.447716 23.7598 0 23.312 0 22.7598V9.06882C0 8.75032 0.151718 8.45087 0.408532 8.26249L11.4085 0.193627C11.7606 -0.0646017 12.2394 -0.0646019 12.5915 0.193627L23.5915 8.26249C23.8483 8.45087 24 8.75032 24 9.06882V22.7598Z" fill="#FF0508"/>
</svg>
