<svg width="24" height="22" viewBox="0 0 24 22" fill="none" xmlns="http://www.w3.org/2000/svg">
<path d="M8.8 20.3076C8.8 21.2384 8.08 22 7.2 22H1.6C0.72 22 0 21.2384 0 20.3076V14.3846C0 13.4538 0.72 12.6923 1.6 12.6923H7.2C8.08 12.6923 8.8 13.4538 8.8 14.3846V20.3076Z" fill="black"/>
<path d="M24.0004 16.077H11.2004C10.7204 16.077 10.4004 15.7386 10.4004 15.2309V14.3847C10.4004 13.877 10.7204 13.5386 11.2004 13.5386H24.0004V16.077Z" fill="black"/>
<path d="M20.8004 20.3077H11.2004C10.7204 20.3077 10.4004 19.9693 10.4004 19.4616V18.6154C10.4004 18.1077 10.7204 17.7693 11.2004 17.7693H20.8004V20.3077Z" fill="black"/>
<path d="M8.8 7.61538C8.8 8.54615 8.08 9.30769 7.2 9.30769H1.6C0.72 9.30769 0 8.54615 0 7.61538V1.69231C0 0.761538 0.72 0 1.6 0H7.2C8.08 0 8.8 0.761538 8.8 1.69231V7.61538Z" fill="black"/>
<path d="M24.0004 3.38465H11.2004C10.7204 3.38465 10.4004 3.04619 10.4004 2.5385V1.69235C10.4004 1.18465 10.7204 0.846191 11.2004 0.846191H24.0004V3.38465Z" fill="black"/>
<path d="M20.8004 7.61549H11.2004C10.7204 7.61549 10.4004 7.27703 10.4004 6.76933V5.92318C10.4004 5.41549 10.7204 5.07703 11.2004 5.07703H20.8004V7.61549Z" fill="black"/>
</svg>
