<svg width="23" height="24" viewBox="0 0 23 24" fill="none" xmlns="http://www.w3.org/2000/svg">
<path fill-rule="evenodd" clip-rule="evenodd" d="M0 2.1814C0 0.976645 0.927771 0 2.09051 0H8.36404C9.51859 0 10.4545 0.968109 10.4545 2.1814V8.72769C10.4545 9.93245 9.52677 10.9091 8.36404 10.9091H2.09051C0.935951 10.9091 0 9.94098 0 8.72769V2.1814ZM0 15.2723C0 14.0676 0.927771 13.0909 2.09051 13.0909H8.36404C9.51859 13.0909 10.4545 14.059 10.4545 15.2723V21.8186C10.4545 23.0234 9.52677 24 8.36404 24H2.09051C0.935951 24 0 23.0319 0 21.8186V15.2723ZM12.5455 15.2723C12.5455 14.0676 13.4732 13.0909 14.636 13.0909H20.9095C22.064 13.0909 23 14.059 23 15.2723V21.8186C23 23.0234 22.0722 24 20.9095 24H14.636C13.4814 24 12.5455 23.0319 12.5455 21.8186V15.2723ZM12.5455 2.1814C12.5455 0.976645 13.4732 0 14.636 0H20.9095C22.064 0 23 0.968109 23 2.1814V8.72769C23 9.93245 22.0722 10.9091 20.9095 10.9091H14.636C13.4814 10.9091 12.5455 9.94098 12.5455 8.72769V2.1814Z" fill="black"/>
</svg>
