<svg width="20" height="20" viewBox="0 0 20 20" fill="none" xmlns="http://www.w3.org/2000/svg">
<g clip-path="url(#clip0_18_3796)">
<path d="M15.1726 10.5488L5.92204 19.7738C5.61895 20.0759 5.12825 20.0754 4.82567 19.7723C4.52333 19.4692 4.52411 18.9782 4.82724 18.6759L13.5272 9.99997L4.82692 1.32407C4.52384 1.02172 4.52306 0.531063 4.82536 0.22794C4.97704 0.0759869 5.17575 9.53674e-06 5.37446 9.53674e-06C5.57266 9.53674e-06 5.77059 0.0754795 5.922 0.226377L15.1726 9.45114C15.3186 9.59638 15.4005 9.79403 15.4005 9.99997C15.4005 10.2059 15.3184 10.4033 15.1726 10.5488Z" fill="white"/>
</g>
<defs>
<clipPath id="clip0_18_3796">
<rect width="20" height="20" fill="white" transform="matrix(1 0 0 -1 0 20)"/>
</clipPath>
</defs>
</svg>
