<svg width="20" height="20" viewBox="0 0 20 20" fill="none" xmlns="http://www.w3.org/2000/svg">
<path d="M20 18.4371V19.0618C20 19.5796 19.5804 19.9991 19.0626 19.9991L0.937589 20C0.419774 20 0.000220321 19.5804 0.000220321 19.0626V18.438C0.000220321 17.9202 0.419774 17.5006 0.937589 17.5006H19.0618C19.5796 17.5006 19.9991 17.9202 19.9991 18.438L20 18.4371ZM18.1253 9.99652V9.05914H14.3749V9.99652C14.3749 10.4588 14.6252 10.8621 14.9995 11.0774V14.2305C14.6244 14.4458 14.3749 14.8491 14.3749 15.3114V16.2488H18.1253V15.3114C18.1253 14.8491 17.8749 14.4458 17.5007 14.2305V11.0774C17.8758 10.8621 18.1253 10.4588 18.1253 9.99652ZM11.8748 9.99652V9.05914H8.12446V9.99652C8.12446 10.4588 8.37481 10.8621 8.74908 11.0774V14.2305C8.37398 14.4458 8.12446 14.8491 8.12446 15.3114V16.2488H11.8748V15.3114C11.8748 14.8491 11.6245 14.4458 11.2502 14.2305V11.0774C11.6253 10.8621 11.8748 10.4588 11.8748 9.99652ZM5.62529 9.99652V9.05914H1.87489V9.99652C1.87489 10.4588 2.12525 10.8621 2.49952 11.0774V14.2305C2.12442 14.4458 1.87489 14.8491 1.87489 15.3114V16.2488H5.62529V15.3114C5.62529 14.8491 5.37493 14.4458 5.00066 14.2305V11.0774C5.37576 10.8621 5.62529 10.4588 5.62529 9.99652ZM0.0284603 7.37505C-0.052714 7.11528 0.043841 6.83159 0.265996 6.67523L9.64034 0.112792C9.85567 -0.0375973 10.1436 -0.0375973 10.359 0.112792L19.7333 6.67523C19.9555 6.8316 20.052 7.11614 19.9708 7.37505C19.8897 7.63481 19.6461 7.81254 19.3736 7.81254H0.625526C0.353801 7.81254 0.11049 7.63481 0.0284603 7.37505ZM8.12555 4.68773C8.12555 5.03123 8.40668 5.31236 8.75018 5.31236H11.2504C11.5939 5.31236 11.8751 5.03123 11.8751 4.68773C11.8751 4.34423 11.5939 4.0631 11.2504 4.0631H8.75018C8.40668 4.0631 8.12555 4.34423 8.12555 4.68773Z" fill="white"/>
</svg>
