<svg width="18" height="20" viewBox="0 0 18 20" fill="none" xmlns="http://www.w3.org/2000/svg">
<path d="M16.1758 8.45078C15.4847 2.89618 11.6752 1.719 9.89361 1.47337V0.845064C9.89361 0.377406 9.49452 0 8.99998 0C8.50545 0 8.10635 0.377406 8.10635 0.845064V1.47337C6.32491 1.71874 2.51522 2.89612 1.82415 8.45078C1.39827 11.8708 0.972401 14.4279 0.114846 15.9211C-0.213294 16.49 0.198624 17.1833 0.8828 17.1833H17.117C17.8024 17.1833 18.2131 16.49 17.885 15.9211C17.024 14.4313 16.6017 11.873 16.1758 8.45078Z" fill="white"/>
<path d="M9.00059 20C10.3352 20 11.4639 19.1714 11.8421 18.0282H6.15918C6.53733 19.1714 7.66596 20 9.00059 20Z" fill="white"/>
</svg>
