<svg width="16" height="20" viewBox="0 0 16 20" fill="none" xmlns="http://www.w3.org/2000/svg">
<path d="M2.34821 8.60843H1.20898L1.84047 18.2963C1.89653 19.2536 2.7089 20 3.67996 20H12.3231C13.2931 20 14.1055 19.2536 14.1626 18.2963L14.7941 8.60843H2.34821ZM9.97588 10.5564C9.98752 10.2443 10.235 10 10.563 10.0219C10.8792 10.0334 11.1162 10.3007 11.1045 10.6013L10.8115 16.5696C10.7999 16.8588 10.5524 17.0926 10.2478 17.0926H10.2255C9.90926 17.0811 9.67231 16.8139 9.68396 16.5132L9.97588 10.5564ZM5.44011 10.0219C5.80081 9.98854 6.01554 10.2443 6.02719 10.5564L6.32019 16.5143C6.33182 16.8149 6.09488 17.0822 5.7786 17.0937H5.75639C5.45175 17.0937 5.20316 16.8598 5.1926 16.5707L4.8996 10.6024C4.88691 10.3007 5.12383 10.0334 5.44011 10.0219Z" fill="white"/>
<path d="M13.6644 2.77274H12.2544V1.65883L12.2533 1.60351C12.2533 0.713026 11.5203 0 10.6286 0H5.37141C4.47969 0 3.74665 0.713026 3.74665 1.60351V2.77273H2.33558C1.04932 2.77273 0 3.80833 0 5.07777V6.3587C0 6.98193 0.507735 7.48303 1.13922 7.49452H14.8597C15.4912 7.48303 15.9989 6.98193 15.9989 6.3587L16 5.07777C16 3.80833 14.9507 2.77274 13.6644 2.77274ZM4.87421 1.65988V1.6035C4.87421 1.33625 5.09951 1.1139 5.3703 1.1139H10.6285C10.8993 1.1139 11.1246 1.33626 11.1246 1.6035V2.77273H4.87421V1.65988Z" fill="white"/>
</svg>
