<svg width="24" height="24" viewBox="0 0 24 24" fill="none" xmlns="http://www.w3.org/2000/svg">
<g opacity="0.2">
<path d="M12 24C18.6043 24 24 18.6043 24 12C24 5.39568 18.6043 0 12 0C5.35252 0 0 5.39568 0 12C0 18.6043 5.39568 24 12 24ZM6.34532 7.46763C6.04317 7.16547 6.04317 6.64748 6.34532 6.30216C6.64748 6 7.16547 6 7.51079 6.30216L12 10.8345L16.5324 6.30216C16.8345 6 17.3525 6 17.6978 6.30216C18 6.60432 18 7.1223 17.6978 7.46763L13.1655 11.9568L17.6978 16.4892C18 16.7914 18 17.3094 17.6978 17.6547C17.5252 17.8273 17.3525 17.8705 17.1367 17.8705C16.9209 17.8705 16.705 17.7842 16.5755 17.6547L12 13.1223L7.46763 17.6547C7.29496 17.8273 7.1223 17.8705 6.90647 17.8705C6.69065 17.8705 6.47482 17.7842 6.34532 17.6547C6.04317 17.3525 6.04317 16.8345 6.34532 16.4892L10.8777 11.9568L6.34532 7.46763Z" fill="black"/>
</g>
</svg>
