<svg width="22" height="22" viewBox="0 0 22 22" fill="none" xmlns="http://www.w3.org/2000/svg">
<g clip-path="url(#clip0_194_1273)">
<path opacity="0.7" d="M10.6411 3.57225L10.6411 3.57226L10.6411 3.57227L11.0581 4.09727L11.3924 3.52419C11.3933 3.52284 11.3946 3.52084 11.3964 3.51818C11.404 3.50726 11.4196 3.48535 11.4461 3.45181C11.4991 3.38459 11.5945 3.27179 11.7531 3.10813L11.4239 2.78919L11.7531 3.10813C13.9924 0.797072 17.6169 0.797072 19.8563 3.10813C22.1035 5.4273 22.1035 9.19321 19.8563 11.5124L11.0477 20.6031C11.0319 20.6194 11.0152 20.6248 11 20.6248C10.9849 20.6248 10.9681 20.6194 10.9523 20.6031L2.14372 11.5124C-0.103463 9.19321 -0.103464 5.4273 2.14372 3.10813C4.38306 0.797071 8.00756 0.797072 10.2469 3.10813C10.312 3.1753 10.4079 3.28745 10.4941 3.39153C10.5358 3.44178 10.5727 3.48725 10.5993 3.52014L10.6304 3.5588L10.6386 3.56905L10.6406 3.57158L10.641 3.57215L10.6411 3.57225Z" stroke="black" stroke-width="0.916667"/>
</g>
<defs>
<clipPath id="clip0_194_1273">
<rect width="22" height="22" fill="white"/>
</clipPath>
</defs>
</svg>
