<svg width="20" height="20" viewBox="0 0 20 20" fill="none" xmlns="http://www.w3.org/2000/svg">
<path d="M7.0767 3.0107V1.68421C7.0767 1.26316 7.39552 0.96876 7.79902 0.96876H12.1985C12.6236 0.96876 12.9208 1.28455 12.9208 1.68421V3.0107H13.8989V1.68421C13.8989 0.736844 13.1334 0 12.1985 0H7.82048C6.86403 0 6.12012 0.758234 6.12012 1.68421V3.0107H7.0767Z" fill="white"/>
<path d="M20 5.91614C20 4.8635 19.1282 3.97946 18.0447 3.97946L13.9209 3.97864H1.95525C0.892522 3.97864 0 4.84213 0 5.91532V12.273H7.65165V12.1678C7.65165 11.2204 8.41715 10.4835 9.35201 10.4835H10.6273C11.5837 10.4835 12.3277 11.2418 12.3277 12.1678V12.273H19.9793L19.9785 5.91616L20 5.91614Z" fill="white"/>
<path d="M12.3489 13.4318C12.3489 14.3791 11.5834 15.116 10.6485 15.116H9.37327C8.41681 15.116 7.6729 14.3577 7.6729 13.4318V13.2845H1.08398V18.0633C1.08398 19.1159 1.95576 20 3.03924 20H16.961C18.0237 20 18.9162 19.1365 18.9162 18.0633V13.2845H12.349L12.3489 13.4318Z" fill="white"/>
<path d="M10.648 11.4521H9.37271C8.94761 11.4521 8.65039 11.7679 8.65039 12.1676V13.4308C8.65039 13.8518 8.96921 14.1462 9.37271 14.1462H10.648C11.0731 14.1462 11.3703 13.8304 11.3703 13.4308V12.1676C11.3703 11.7679 11.0515 11.4521 10.648 11.4521Z" fill="white"/>
</svg>
