<svg width="20" height="20" viewBox="0 0 20 20" fill="none" xmlns="http://www.w3.org/2000/svg">
<path d="M18.7357 9.99997C18.7357 9.80012 19.026 9.27951 19.2185 8.93573C19.6963 8.07958 20.2908 7.0137 19.8393 5.92474C19.3887 4.83501 18.2143 4.50192 17.2711 4.23546C16.8912 4.12772 16.3188 3.96487 16.1773 3.82425C16.0137 3.6614 15.8484 3.08816 15.7283 2.66954C15.461 1.74594 15.1288 0.596161 14.077 0.161114C13.0235 -0.274776 11.9774 0.302574 11.1352 0.76725C10.7537 0.97697 10.2306 1.26565 10.0004 1.26565C9.80052 1.26565 9.27913 0.974509 8.93537 0.782872C8.07845 0.3034 7.01429 -0.290419 5.92375 0.160293C4.83491 0.610984 4.50185 1.78544 4.23459 2.72872C4.12685 3.10869 3.96401 3.6811 3.8234 3.82256C3.66057 3.98541 3.08737 4.15154 2.66877 4.27161C1.74524 4.5389 0.595542 4.87118 0.160525 5.92308C-0.275334 6.9758 0.301976 8.02359 0.766618 8.86501C0.976325 9.24662 1.26498 9.76888 1.26498 9.99915C1.26498 10.199 0.973864 10.7204 0.78224 11.0642C0.304443 11.9204 -0.290976 12.9862 0.160525 14.0752C0.611185 15.1641 1.78556 15.4972 2.72793 15.7645C3.10787 15.8714 3.68106 16.0351 3.82334 16.1773C3.98535 16.3394 4.15147 16.9118 4.27236 17.3312C4.5388 18.254 4.87188 19.4029 5.92371 19.8388C6.97553 20.2755 8.02408 19.6982 8.86628 19.2335C9.24786 19.0238 9.77008 18.7351 10.0003 18.7351C10.2002 18.7351 10.7207 19.0254 11.0645 19.2179C11.706 19.5756 12.4658 20 13.2643 20C13.5308 20 13.8022 19.9523 14.0752 19.8388C15.1632 19.3881 15.4971 18.2137 15.7644 17.2721C15.8713 16.8921 16.0349 16.318 16.1772 16.1766C16.3392 16.0129 16.9116 15.8476 17.331 15.7275C18.2537 15.4602 19.4026 15.128 19.8384 14.0761C20.2751 13.0233 19.6969 11.9764 19.2331 11.1333C19.0234 10.7533 18.7357 10.2302 18.7357 9.99997ZM7.33743 5.74066C8.2182 5.74066 8.93531 6.457 8.93531 7.33865C8.93531 8.21948 8.21903 8.93664 7.33743 8.93664C6.45666 8.93664 5.73956 8.2203 5.73956 7.33865C5.73956 6.457 6.45666 5.74066 7.33743 5.74066ZM12.6624 14.2612C11.7816 14.2612 11.0645 13.5448 11.0645 12.6632C11.0645 11.7824 11.7808 11.0652 12.6624 11.0652C13.5431 11.0652 14.2602 11.7815 14.2602 12.6632C14.2594 13.5448 13.5431 14.2612 12.6624 14.2612ZM13.9477 7.55829L7.55775 13.9494C7.34969 14.1574 7.07749 14.2611 6.80446 14.2611C6.53224 14.2611 6.25923 14.1574 6.05116 13.9494C5.63503 13.5332 5.63503 12.8596 6.05116 12.4435L12.4412 6.05305C12.8573 5.63688 13.5308 5.63688 13.9469 6.05305C14.3639 6.46839 14.3639 7.14215 13.9477 7.55829Z" fill="white"/>
</svg>
