<svg width="14" height="14" viewBox="0 0 14 14" fill="none" xmlns="http://www.w3.org/2000/svg">
<path d="M11.9 13.9998C13.0598 13.9998 14 13.0596 14 11.8998C14 10.74 13.0598 9.7998 11.9 9.7998C10.7403 9.7998 9.80005 10.74 9.80005 11.8998C9.80005 13.0596 10.7403 13.9998 11.9 13.9998Z" fill="black"/>
<path d="M2.1 4.2C3.2598 4.2 4.2 3.2598 4.2 2.1C4.2 0.940202 3.2598 0 2.1 0C0.940202 0 0 0.940202 0 2.1C0 3.2598 0.940202 4.2 2.1 4.2Z" fill="black"/>
<path d="M13.58 0.42C13.02 -0.14 12.18 -0.14 11.62 0.42L0.42 11.62C-0.14 12.18 -0.14 13.02 0.42 13.58C0.7 13.86 0.98 14 1.4 14C1.82 14 2.1 13.86 2.38 13.58L13.58 2.38C14.14 1.82 14.14 0.98 13.58 0.42Z" fill="black"/>
</svg>
