<svg width="36" height="36" viewBox="0 0 36 36" fill="none" xmlns="http://www.w3.org/2000/svg">
<rect width="36" height="36" rx="12" fill="url(#paint0_linear_20_204)"/>
<path fill-rule="evenodd" clip-rule="evenodd" d="M11.5833 7H24.4167C25.6323 7 26.7981 7.48288 27.6575 8.34243C28.5171 9.20197 29 10.3678 29 11.5833V24.4167C29 25.6323 28.5171 26.7981 27.6575 27.6575C26.7981 28.5171 25.6323 29 24.4167 29H11.5833C10.3678 29 9.20197 28.5171 8.34243 27.6575C7.48288 26.7981 7 25.6323 7 24.4167V11.5833C7 10.3678 7.48288 9.20197 8.34243 8.34243C9.20197 7.48288 10.3678 7 11.5833 7ZM13.9258 24.0975C15.1318 24.9032 16.5496 25.3333 18 25.3333C19.9449 25.3333 21.8102 24.5607 23.1855 23.1855C24.5607 21.8102 25.3333 19.9449 25.3333 18C25.3333 16.5496 24.9032 15.1318 24.0975 13.9258C23.2916 12.7198 22.1464 11.7799 20.8064 11.2249C19.4664 10.6698 17.9918 10.5246 16.5694 10.8076C15.1468 11.0905 13.8402 11.789 12.8145 12.8145C11.789 13.8402 11.0905 15.1468 10.8076 16.5694C10.5246 17.9918 10.6698 19.4664 11.2249 20.8064C11.7799 22.1464 12.7198 23.2916 13.9258 24.0975ZM14.9444 13.4269C15.8489 12.8226 16.9122 12.5 18 12.5C19.4587 12.5 20.8576 13.0794 21.889 14.1109C22.9206 15.1424 23.5 16.5413 23.5 18C23.5 19.0878 23.1774 20.1511 22.5731 21.0556C21.9687 21.9601 21.1098 22.6651 20.1048 23.0814C19.0997 23.4976 17.9939 23.6065 16.927 23.3943C15.8601 23.1821 14.8801 22.6583 14.1109 21.889C13.3417 21.1199 12.8179 20.1399 12.6057 19.073C12.3935 18.0061 12.5024 16.9003 12.9186 15.8952C13.335 14.8902 14.0399 14.0313 14.9444 13.4269ZM19.5767 18.9167H20.75C20.9931 18.9167 21.2263 18.8201 21.3982 18.6482C21.5701 18.4763 21.6667 18.2431 21.6667 18C21.6667 17.7569 21.5701 17.5237 21.3982 17.3518C21.2263 17.18 20.9931 17.0833 20.75 17.0833H19.5767C19.3749 16.7338 19.0634 16.4606 18.6905 16.3062C18.3177 16.1518 17.9043 16.1247 17.5144 16.2291C17.1246 16.3336 16.7802 16.5638 16.5344 16.884C16.2888 17.2042 16.1557 17.5964 16.1557 18C16.1557 18.4036 16.2888 18.7959 16.5344 19.116C16.7802 19.4362 17.1246 19.6664 17.5144 19.7709C17.9043 19.8753 18.3177 19.8482 18.6905 19.6938C19.0634 19.5394 19.3749 19.2662 19.5767 18.9167Z" fill="white"/>
<defs>
<linearGradient id="paint0_linear_20_204" x1="15.6145" y1="2.21305e-07" x2="15.6145" y2="36" gradientUnits="userSpaceOnUse">
<stop stop-color="#4F8E36"/>
<stop offset="1" stop-color="#75C555"/>
</linearGradient>
</defs>
</svg>
