<svg width="22" height="22" viewBox="0 0 22 22" fill="none" xmlns="http://www.w3.org/2000/svg">
<path d="M14.2832 0C13.6758 0 13.1832 0.492481 13.1832 1.1C13.1832 1.70751 13.6758 2.2 14.2832 2.2H18.2442L9.12199 11.3222C8.69241 11.7517 8.69241 12.4483 9.12199 12.8778C9.55154 13.3074 10.2481 13.3074 10.6776 12.8778L19.7998 3.75564V7.71653C19.7998 8.32405 20.2923 8.8165 20.8998 8.8165C21.5073 8.8165 21.9998 8.32405 21.9998 7.71654V1.1C21.9998 0.492492 21.5073 0 20.8998 0H14.2832Z" fill="black"/>
<path d="M2.2 6.60005C2.2 5.99254 2.69249 5.50005 3.3 5.50005H10.2666C10.8742 5.50005 11.3666 5.00756 11.3666 4.40005C11.3666 3.79254 10.8742 3.30005 10.2666 3.30005H3.3C1.47747 3.30005 0 4.77751 0 6.60005V18.7C0 20.5226 1.47747 22 3.3 22H15.4C17.2226 22 18.7 20.5226 18.7 18.7V12.3881C18.7 11.7806 18.2075 11.2881 17.6 11.2881C16.9925 11.2881 16.5 11.7806 16.5 12.3881V18.7C16.5 19.3076 16.0075 19.8 15.4 19.8H3.3C2.69249 19.8 2.2 19.3076 2.2 18.7V6.60005Z" fill="black"/>
</svg>
