<svg width="20" height="20" viewBox="0 0 20 20" fill="none" xmlns="http://www.w3.org/2000/svg">
<path d="M10.4543 1.10414L13.1521 6.35984C13.2262 6.50397 13.368 6.60383 13.5332 6.62639L19.5665 7.46948C19.757 7.49553 19.916 7.62403 19.9756 7.80029C20.0343 7.97655 19.9855 8.17018 19.8473 8.29955L15.4814 12.3907V12.3899C15.3622 12.5019 15.308 12.6634 15.336 12.8214L16.3665 18.5979C16.399 18.7802 16.3213 18.9643 16.1651 19.0737C16.0088 19.1822 15.802 19.197 15.6322 19.111L10.2357 16.383C10.0885 16.3092 9.91151 16.3092 9.76428 16.383L4.36782 19.111C4.19802 19.197 3.9912 19.1822 3.83494 19.0737C3.6787 18.9643 3.60103 18.7802 3.63354 18.5979L4.66405 12.8214C4.69204 12.6634 4.63785 12.5019 4.51863 12.3899L0.152681 8.29957C0.0144952 8.17019 -0.0342741 7.97658 0.0244303 7.80031C0.0840388 7.62406 0.242996 7.49555 0.433558 7.4695L6.46677 6.62641C6.63205 6.60384 6.77384 6.50399 6.8479 6.35986L9.54567 1.10416C9.63147 0.938324 9.80758 0.833252 9.99995 0.833252C10.1923 0.833252 10.3686 0.938292 10.4543 1.10414Z" fill="#FFC400"/>
</svg>
